<svg id="Isolationsmodus_Kopie" data-name="Isolationsmodus Kopie" xmlns="http://www.w3.org/2000/svg" viewBox="0 0 448.86 136.56"><defs><style>.cls-1{fill:#e73743;}.cls-2,.cls-4{fill:#15b7d1;}.cls-3{fill:none;}.cls-4{font-size:58.31px;font-family:Roboto;}.cls-5{letter-spacing:-1px;}</style></defs><title>200429_Voluntero_Neue Farben</title><path class="cls-1" d="M61.69,76.38a0.49,0.49,0,0,0-.29.06c-1.52.82-15.63,8.42-21.2,10.23-5.9,1.92-15.4,2.76-20.09,2.17-3.17-.4-9.4-1.08-12.67,1.8S3.54,95,3.54,95s6.72-1.22,9.53,1.47c2.08,2,.45,6.4,2.75,6.78s6.33-2.69,7.1-1.73,0.38,3.35,2.69,2.88a25,25,0,0,1,7.87,0c8.12,1.78,17.94-1.74,24.9-9C64.23,89.29,71.77,81,74,78.47a0.5,0.5,0,0,0-.32-0.84Z" transform="translate(-3.54 -8.66)"/><path class="cls-1" d="M89.27,60.59a0.51,0.51,0,0,1,.12.91c-1.76,1.1-5.56,3.68-7.29,6.6A68.77,68.77,0,0,1,65.17,86.42c-14.76,10.18-19.3,8.9-26.39,17.48A15,15,0,0,1,30.42,109H30.31c-0.68,0-6.82-.6-3.63-9.62,3.38-9.54,14.58-13.34,20.56-15s16.38-8.3,23.07-16.78C75.68,60.81,82.75,58.62,89.27,60.59Z" transform="translate(-3.54 -8.66)"/><g id="Ebene_4_Kopie" data-name="Ebene 4 Kopie"><path class="cls-2" d="M117.54,44.84c-3.21-.73-4.39.42-5.1,1.55-1.55,2.48-7.61,5.67-10.4,8.06-2.17,1.86-6.9,4-9.87,5.35a0.5,0.5,0,0,1-.71-0.47h0c0-.74,1.75-1.07,2.41-1.4,1.41-.7-0.14-1.79.21-2.32,0.23-.34-0.1-0.35-0.3-0.44,0-.15.16-0.39,0.13-0.52a0.79,0.79,0,0,0-.45-0.35c-0.14-.37.69-1,0.36-1.3-0.57-.45-2.37-0.76-2.52-1.22a3.74,3.74,0,0,0-1.43-2l-0.23-.17h0c-0.7-1.26-3.17-2-4.92-.8-3.11,2.08-3,4.07-3,4.07S81,54.7,83.26,57.33a36.09,36.09,0,0,0,2.7,3c0.05,0.1.1,0.21,0.14,0.32-3.79,1.33-5.59,6.66-5.59,11.16,0,3.76-2.32,8.45-4.28,11.76a0.49,0.49,0,0,1-.27.22,29.14,29.14,0,0,0-6.15,2.7c-3.59,2.34-5.07,7.15-7,10.14-1.63,2.48-3.49,7.55-4.76,8a17,17,0,0,0-8.6,6.22c-3.57,4.92-8.08,7.85-10.11,8s-2.62.38-3.26,2.78-1.95,4.06-3,6.45-0.14,3,3.18.33c1.29-1,3.9-3.48,8.57-7C52.09,116,61.61,110.08,63.64,108c5.94-6.17,20.92-19.83,20.92-19.83h0a45.37,45.37,0,0,0,9-10.84,13.62,13.62,0,0,0,1.53-9.61,0.5,0.5,0,0,1,.14-0.46c1.55-1.55,3.1-3,4.28-4.09,2.59-2.29,6.39-3.91,9.14-6.95a35,35,0,0,0,4.2-5.7,0.49,0.49,0,0,1,.25-0.22c0.41-.16,1.55-0.61,2.61-1.05C117.59,48.44,119.25,45.23,117.54,44.84Z" transform="translate(-3.54 -8.66)"/><circle class="cls-3" cx="70.61" cy="50.19" r="50.19"/><text class="cls-4" transform="translate(90.16 120.76)">V<tspan x="36.73" y="0">O</tspan><tspan class="cls-5" x="76.82" y="0">L</tspan><tspan x="106.65" y="0">U</tspan><tspan x="144.46" y="0">N</tspan><tspan x="185.21" y="0">TERO</tspan></text></g></svg>